<svg width="425.270703125px" height="180.79999999999998px" xmlns="http://www.w3.org/2000/svg" viewBox="37.364648437499994 -15.399999999999991 425.270703125 180.79999999999998" style="background: none;" preserveAspectRatio="xMidYMid"><defs><filter id="editing-hole" x="-100%" y="-100%" width="300%" height="300%"><feFlood flood-color="#46312d" result="black"></feFlood><feMorphology operator="dilate" radius="2" in="SourceGraphic" result="erode"></feMorphology><feGaussianBlur in="erode" stdDeviation="4" result="blur"></feGaussianBlur><feOffset in="blur" dx="2" dy="2" result="offset"></feOffset><feComposite operator="atop" in="offset" in2="black" result="merge"></feComposite><feComposite operator="in" in="merge" in2="SourceGraphic" result="inner-shadow"></feComposite></filter></defs><g filter="url(#editing-hole)"><g transform="translate(103.87236022949219, 101.1500015258789)"><path d="M32.44-29.13L32.44-29.13L32.44-29.13Q29.56-28.94 27.72-27.38L27.72-27.38L27.72-27.38Q25.88-25.81 24.78-23.47L24.78-23.47L24.78-23.47Q23.69-21.13 23.16-18.31L23.16-18.31L23.16-18.31Q22.63-15.50 22.47-12.75L22.47-12.75L22.47-12.75Q22.31-10 22.41-7.53L22.41-7.53L22.41-7.53Q22.50-5.06 22.69-3.44L22.69-3.44L19.38-3.63L19.38-3.63Q19.38-3.94 19.31-5.22L19.31-5.22L19.31-5.22Q19.25-6.50 19.13-8.28L19.13-8.28L19.13-8.28Q19-10.06 18.91-12.06L18.91-12.06L18.91-12.06Q18.81-14.06 18.72-15.84L18.72-15.84L18.72-15.84Q18.63-17.63 18.53-18.88L18.53-18.88L18.53-18.88Q18.44-20.13 18.38-20.50L18.38-20.50L18.38-20.50Q18.25-21.44 17.94-22.91L17.94-22.91L17.94-22.91Q17.63-24.38 16.97-25.75L16.97-25.75L16.97-25.75Q16.31-27.13 15.41-28.13L15.41-28.13L15.41-28.13Q14.50-29.13 13.31-29.13L13.31-29.13L13.31-29.13Q11.88-29.13 10.75-28.47L10.75-28.47L10.75-28.47Q9.63-27.81 8.81-26.72L8.81-26.72L8.81-26.72Q8-25.63 7.41-24.22L7.41-24.22L7.41-24.22Q6.81-22.81 6.44-21.38L6.44-21.38L6.44-21.38Q6.06-19.94 5.84-18.59L5.84-18.59L5.84-18.59Q5.63-17.25 5.56-16.25L5.56-16.25L5.56-16.25Q5.50-15.75 5.44-14.75L5.44-14.75L5.44-14.75Q5.38-13.75 5.28-12.47L5.28-12.47L5.28-12.47Q5.19-11.19 5.09-9.81L5.09-9.81L5.09-9.81Q5-8.44 4.91-7.16L4.91-7.16L4.91-7.16Q4.81-5.88 4.78-4.88L4.78-4.88L4.78-4.88Q4.75-3.88 4.75-3.44L4.75-3.44L2.13-3.44L2.13-3.44Q1.94-6.81 1.75-9.34L1.75-9.34L1.75-9.34Q1.56-11.88 1.47-14.06L1.47-14.06L1.47-14.06Q1.38-16.25 1.31-18.50L1.31-18.50L1.31-18.50Q1.25-20.75 1.25-23.50L1.25-23.50L1.25-24.44L1.25-24.44Q1.25-25.13 1.28-25.88L1.28-25.88L1.28-25.88Q1.31-26.63 1.31-27.25L1.31-27.25L1.31-28.25L1.31-28.25Q1.50-28.94 1.94-29.66L1.94-29.66L1.94-29.66Q2.38-30.38 3.06-30.75L3.06-30.75L3.06-30.75Q3.19-30.75 3.47-30.41L3.47-30.41L3.47-30.41Q3.75-30.06 3.81-29.94L3.81-29.94L3.81-29.94Q3.94-29.69 4.06-29.06L4.06-29.06L4.06-29.06Q4.19-28.44 4.31-27.78L4.31-27.78L4.31-27.78Q4.44-27.13 4.59-26.50L4.59-26.50L4.59-26.50Q4.75-25.88 4.75-25.63L4.75-25.63L4.75-25.63Q4.75-25.56 4.91-25.56L4.91-25.56L4.91-25.56Q5.06-25.56 5.13-25.56L5.13-25.56L5.13-25.56Q5.31-25.56 5.75-26.03L5.75-26.03L5.75-26.03Q6.19-26.50 6.84-27.16L6.84-27.16L6.84-27.16Q7.50-27.81 8.31-28.63L8.31-28.63L8.31-28.63Q9.13-29.44 10-30.09L10-30.09L10-30.09Q10.88-30.75 11.81-31.25L11.81-31.25L11.81-31.25Q12.75-31.75 13.75-31.75L13.75-31.75L13.75-31.75Q15.06-31.75 16.19-31.06L16.19-31.06L16.19-31.06Q17.31-30.38 18.19-29.38L18.19-29.38L18.19-29.38Q19.06-28.38 19.75-27.13L19.75-27.13L19.75-27.13Q20.44-25.88 21-24.81L21-24.81L21-24.81Q23.13-28.38 26.41-30.06L26.41-30.06L26.41-30.06Q29.69-31.75 33.81-31.75L33.81-31.75L33.81-31.75Q36.50-30.75 38.06-28.75L38.06-28.75L38.06-28.75Q39.63-26.75 40.47-24.19L40.47-24.19L40.47-24.19Q41.31-21.63 41.59-18.75L41.59-18.75L41.59-18.75Q41.88-15.88 42.03-13.13L42.03-13.13L42.03-13.13Q42.19-10.38 42.44-8.09L42.44-8.09L42.44-8.09Q42.69-5.81 43.44-4.44L43.44-4.44L43.44-4.44Q44.19-3.06 45.66-2.81L45.66-2.81L45.66-2.81Q47.13-2.56 49.75-3.94L49.75-3.94L49.75-3.94Q49.50-3.38 49.53-2.88L49.53-2.88L49.53-2.88Q49.56-2.38 49.63-2L49.63-2L49.63-2Q49.69-1.63 49.59-1.44L49.59-1.44L49.59-1.44Q49.50-1.25 49-1.25L49-1.25L49-1.25Q46.19 0.25 44.38-0.25L44.38-0.25L44.38-0.25Q42.56-0.75 41.47-2.50L41.47-2.50L41.47-2.50Q40.38-4.25 39.75-7.03L39.75-7.03L39.75-7.03Q39.13-9.81 38.75-12.91L38.75-12.91L38.75-12.91Q38.38-16 38-19.06L38-19.06L38-19.06Q37.63-22.13 36.97-24.47L36.97-24.47L36.97-24.47Q36.31-26.81 35.28-28.16L35.28-28.16L35.28-28.16Q34.25-29.50 32.44-29.13ZM48.88-9L48.88-9L48.88-9Q49.06-11.38 49.56-13.91L49.56-13.91L49.56-13.91Q50.06-16.44 50.94-18.78L50.94-18.78L50.94-18.78Q51.81-21.13 53.13-23.19L53.13-23.19L53.13-23.19Q54.44-25.25 56.25-26.78L56.25-26.78L56.25-26.78Q58.06-28.31 60.44-29.09L60.44-29.09L60.44-29.09Q62.81-29.88 65.81-29.63L65.81-29.63L65.81-29.63Q69.88-26.13 71.63-22.53L71.63-22.53L71.63-22.53Q73.38-18.94 73.41-15.66L73.41-15.66L73.41-15.66Q73.44-12.38 72.09-9.50L72.09-9.50L72.09-9.50Q70.75-6.63 68.59-4.53L68.59-4.53L68.59-4.53Q66.44-2.44 63.81-1.19L63.81-1.19L63.81-1.19Q61.19 0.06 58.69 0.06L58.69 0.06L58.69 0.06Q56.75 0.06 54.97-0.53L54.97-0.53L54.97-0.53Q53.19-1.13 51.84-2.28L51.84-2.28L51.84-2.28Q50.50-3.44 49.69-5.13L49.69-5.13L49.69-5.13Q48.88-6.81 48.88-9ZM70.38-15.44L70.38-15.44L70.38-15.44Q70.38-17.31 70.09-18.88L70.09-18.88L70.09-18.88Q69.81-20.44 69.19-21.75L69.19-21.75L69.19-21.75Q68.56-23.06 67.53-24.28L67.53-24.28L67.53-24.28Q66.50-25.50 65-26.69L65-26.69L64.88-26.19L64.88-26.19Q62.63-26.38 60.31-25.13L60.31-25.13L60.31-25.13Q58-23.88 56.13-21.63L56.13-21.63L56.13-21.63Q54.25-19.38 53.13-16.31L53.13-16.31L53.13-16.31Q52-13.25 52.25-9.81L52.25-9.81L52.25-9.81Q52.25-7.75 53.06-6.19L53.06-6.19L53.06-6.19Q53.88-4.63 55.69-3.44L55.69-3.44L55.69-3.44Q55.88-3.44 56.38-3.41L56.38-3.41L56.38-3.41Q56.88-3.38 57.41-3.38L57.41-3.38L57.41-3.38Q57.94-3.38 58.44-3.34L58.44-3.34L58.44-3.34Q58.94-3.31 59.06-3.31L59.06-3.31L59.06-3.31Q61.88-3.31 64-4.16L64-4.16L64-4.16Q66.13-5 67.53-6.56L67.53-6.56L67.53-6.56Q68.94-8.13 69.66-10.38L69.66-10.38L69.66-10.38Q70.38-12.63 70.38-15.44ZM75.81-9L75.81-9L75.81-9Q76-11.38 76.50-13.91L76.50-13.91L76.50-13.91Q77-16.44 77.88-18.78L77.88-18.78L77.88-18.78Q78.75-21.13 80.06-23.19L80.06-23.19L80.06-23.19Q81.38-25.25 83.19-26.78L83.19-26.78L83.19-26.78Q85-28.31 87.38-29.09L87.38-29.09L87.38-29.09Q89.75-29.88 92.75-29.63L92.75-29.63L92.75-29.63Q96.81-26.13 98.56-22.53L98.56-22.53L98.56-22.53Q100.31-18.94 100.34-15.66L100.34-15.66L100.34-15.66Q100.38-12.38 99.03-9.50L99.03-9.50L99.03-9.50Q97.69-6.63 95.53-4.53L95.53-4.53L95.53-4.53Q93.38-2.44 90.75-1.19L90.75-1.19L90.75-1.19Q88.13 0.06 85.63 0.06L85.63 0.06L85.63 0.06Q83.69 0.06 81.91-0.53L81.91-0.53L81.91-0.53Q80.13-1.13 78.78-2.28L78.78-2.28L78.78-2.28Q77.44-3.44 76.63-5.13L76.63-5.13L76.63-5.13Q75.81-6.81 75.81-9ZM97.31-15.44L97.31-15.44L97.31-15.44Q97.31-17.31 97.03-18.88L97.03-18.88L97.03-18.88Q96.75-20.44 96.13-21.75L96.13-21.75L96.13-21.75Q95.50-23.06 94.47-24.28L94.47-24.28L94.47-24.28Q93.44-25.50 91.94-26.69L91.94-26.69L91.81-26.19L91.81-26.19Q89.56-26.38 87.25-25.13L87.25-25.13L87.25-25.13Q84.94-23.88 83.06-21.63L83.06-21.63L83.06-21.63Q81.19-19.38 80.06-16.31L80.06-16.31L80.06-16.31Q78.94-13.25 79.19-9.81L79.19-9.81L79.19-9.81Q79.19-7.75 80-6.19L80-6.19L80-6.19Q80.81-4.63 82.63-3.44L82.63-3.44L82.63-3.44Q82.81-3.44 83.31-3.41L83.31-3.41L83.31-3.41Q83.81-3.38 84.34-3.38L84.34-3.38L84.34-3.38Q84.88-3.38 85.38-3.34L85.38-3.34L85.38-3.34Q85.88-3.31 86-3.31L86-3.31L86-3.31Q88.81-3.31 90.94-4.16L90.94-4.16L90.94-4.16Q93.06-5 94.47-6.56L94.47-6.56L94.47-6.56Q95.88-8.13 96.59-10.38L96.59-10.38L96.59-10.38Q97.31-12.63 97.31-15.44ZM118.19-30.06L118.19-30.06L118.19-30.06Q116.88-30.06 115.13-29.22L115.13-29.22L115.13-29.22Q113.38-28.38 111.75-27.09L111.75-27.09L111.75-27.09Q110.13-25.81 109-24.28L109-24.28L109-24.28Q107.88-22.75 107.88-21.38L107.88-21.38L107.88-2.50L107.88-2.50Q107.88-2.25 107.59-2.09L107.59-2.09L107.59-2.09Q107.31-1.94 106.97-1.84L106.97-1.84L106.97-1.84Q106.63-1.75 106.25-1.72L106.25-1.72L106.25-1.72Q105.88-1.69 105.69-1.69L105.69-1.69L105.69-1.69Q104.88-1.69 104.50-1.97L104.50-1.97L104.50-1.97Q104.13-2.25 104.03-2.75L104.03-2.75L104.03-2.75Q103.94-3.25 103.97-3.88L103.97-3.88L103.97-3.88Q104-4.50 104-5.13L104-5.13L104-5.13Q103.94-5.63 103.88-7.31L103.88-7.31L103.75-11.13L103.75-11.13Q103.69-13.31 103.59-15.78L103.59-15.78L103.59-15.78Q103.50-18.25 103.44-20.47L103.44-20.47L103.44-20.47Q103.38-22.69 103.28-24.34L103.28-24.34L103.28-24.34Q103.19-26 103.19-26.56L103.19-26.56L103.19-28.94L103.19-28.94Q103.19-29.31 103.31-29.63L103.31-29.63L103.31-29.63Q103.44-29.94 103.81-30.22L103.81-30.22L103.81-30.22Q104.19-30.50 104.88-30.75L104.88-30.75L104.88-30.75Q105.06-30.75 105.34-30.41L105.34-30.41L105.34-30.41Q105.63-30.06 105.69-29.94L105.69-29.94L105.69-29.94Q105.75-29.69 105.91-29.06L105.91-29.06L105.91-29.06Q106.06-28.44 106.19-27.78L106.19-27.78L106.19-27.78Q106.31-27.13 106.44-26.50L106.44-26.50L106.44-26.50Q106.56-25.88 106.56-25.63L106.56-25.63L106.56-25.63Q106.63-25.56 106.75-25.56L106.75-25.56L106.75-25.56Q106.88-25.56 107-25.56L107-25.56L107-25.56Q107.88-25.56 109.09-26.66L109.09-26.66L109.09-26.66Q110.31-27.75 111.91-29.06L111.91-29.06L111.91-29.06Q113.50-30.38 115.25-31.47L115.25-31.47L115.25-31.47Q117-32.56 118.94-32.56L118.94-32.56L118.94-32.56Q121.38-32.56 122.78-31.28L122.78-31.28L122.78-31.28Q124.19-30 124.84-27.84L124.84-27.84L124.84-27.84Q125.50-25.69 125.72-23L125.72-23L125.72-23Q125.94-20.31 126.09-17.53L126.09-17.53L126.09-17.53Q126.25-14.75 126.56-12.03L126.56-12.03L126.56-12.03Q126.88-9.31 127.75-7.19L127.75-7.19L127.75-7.19Q128.63-5.06 130.28-3.78L130.28-3.78L130.28-3.78Q131.94-2.50 134.81-2.50L134.81-2.50L134.81-2.50Q135.75-2.50 136.72-2.63L136.72-2.63L136.72-2.63Q137.69-2.75 138.63-2.94L138.63-2.94L138.63-2.94Q139.56-3.13 140.53-3.28L140.53-3.28L140.53-3.28Q141.50-3.44 142.50-3.44L142.50-3.44L142.50-3.44Q142.63-3.44 143-3.44L143-3.44L143.31-3.44L143.31-3.44Q141.06-1.75 138.75-0.84L138.75-0.84L138.75-0.84Q136.44 0.06 133.50 0.06L133.50 0.06L133.50 0.06Q130.38 0.06 128.47-1.22L128.47-1.22L128.47-1.22Q126.56-2.50 125.44-4.66L125.44-4.66L125.44-4.66Q124.31-6.81 123.88-9.50L123.88-9.50L123.88-9.50Q123.44-12.19 123.19-14.97L123.19-14.97L123.19-14.97Q122.94-17.75 122.81-20.47L122.81-20.47L122.81-20.47Q122.69-23.19 122.25-25.31L122.25-25.31L122.25-25.31Q121.81-27.44 120.88-28.75L120.88-28.75L120.88-28.75Q119.94-30.06 118.19-30.06ZM140.81-23.88L140.81-23.88L140.81-23.88Q140.88-24.50 141.16-25.09L141.16-25.09L141.16-25.09Q141.44-25.69 142.06-25.69L142.06-25.69L142.06-25.69Q142.75-25.69 143.22-24.78L143.22-24.78L143.22-24.78Q143.69-23.88 144-22.34L144-22.34L144-22.34Q144.31-20.81 144.56-18.88L144.56-18.88L144.56-18.88Q144.81-16.94 145-14.91L145-14.91L145-14.91Q145.19-12.88 145.34-10.94L145.34-10.94L145.34-10.94Q145.50-9 145.75-7.47L145.75-7.47L145.75-7.47Q146-5.94 146.34-5.03L146.34-5.03L146.34-5.03Q146.69-4.13 147.19-4.13L147.19-4.13L147.19-4.13Q147.25-4.13 147.41-4.16L147.41-4.16L147.41-4.16Q147.56-4.19 147.63-4.25L147.63-4.25L147.63-4.25Q148.94-6.50 149.59-8.53L149.59-8.53L149.59-8.53Q150.25-10.56 150.56-12.66L150.56-12.66L150.56-12.66Q150.88-14.75 150.94-17.06L150.94-17.06L150.94-17.06Q151-19.38 151-22.19L151-22.19L151-22.19Q151.31-22.94 151.84-23.09L151.84-23.09L151.84-23.09Q152.38-23.25 152.88-23.25L152.88-23.25L152.88-23.25Q153.13-23.25 153.38-23.22L153.38-23.22L153.38-23.22Q153.63-23.19 153.63-23.13L153.63-23.13L155.38-8.56L155.38-8.56Q155.50-7.56 156.25-6.78L156.25-6.78L156.25-6.78Q157-6 158.03-5.41L158.03-5.41L158.03-5.41Q159.06-4.81 160.19-4.50L160.19-4.50L160.19-4.50Q161.31-4.19 162.19-4.19L162.19-4.19L162.19-4.19Q165.06-4.19 167.47-4.91L167.47-4.91L167.47-4.91Q169.88-5.63 171.56-7.06L171.56-7.06L171.56-7.06Q173.25-8.50 174.19-10.56L174.19-10.56L174.19-10.56Q175.13-12.63 175.13-15.44L175.13-15.44L175.13-15.44Q175.13-17.75 174.53-19.28L174.53-19.28L174.53-19.28Q173.94-20.81 173.03-21.81L173.03-21.81L173.03-21.81Q172.13-22.81 171.09-23.47L171.09-23.47L171.09-23.47Q170.06-24.13 169.16-24.81L169.16-24.81L169.16-24.81Q168.25-25.50 167.66-26.34L167.66-26.34L167.66-26.34Q167.06-27.19 167.06-28.56L167.06-28.56L167.06-28.56Q169.94-28.56 171.97-27.38L171.97-27.38L171.97-27.38Q174-26.19 175.25-24.28L175.25-24.28L175.25-24.28Q176.50-22.38 177.06-20L177.06-20L177.06-20Q177.63-17.63 177.63-15.06L177.63-15.06L177.63-15.06Q177.63-11.81 176.38-9.31L176.38-9.31L176.38-9.31Q175.13-6.81 172.94-5.09L172.94-5.09L172.94-5.09Q170.75-3.38 167.91-2.50L167.91-2.50L167.91-2.50Q165.06-1.63 161.81-1.63L161.81-1.63L161.81-1.63Q158.63-1.63 156.25-3.03L156.25-3.03L156.25-3.03Q153.88-4.44 151.88-6.81L151.88-6.81L151.88-6.81Q151.56-6.06 151.06-4.88L151.06-4.88L151.06-4.88Q150.56-3.69 149.91-2.59L149.91-2.59L149.91-2.59Q149.25-1.50 148.38-0.72L148.38-0.72L148.38-0.72Q147.50 0.06 146.31 0.06L146.31 0.06L146.31 0.06Q145.25 0.06 144.53-0.97L144.53-0.97L144.53-0.97Q143.81-2 143.41-3.34L143.41-3.34L143.41-3.34Q143-4.69 142.78-5.94L142.78-5.94L142.78-5.94Q142.56-7.19 142.56-7.63L142.56-7.63L142.56-7.63Q142.44-8.31 142.31-9.59L142.31-9.59L142.31-9.59Q142.19-10.88 142-12.47L142-12.47L142-12.47Q141.81-14.06 141.63-15.84L141.63-15.84L141.63-15.84Q141.44-17.63 141.25-19.22L141.25-19.22L141.25-19.22Q141.06-20.81 140.97-22.06L140.97-22.06L140.97-22.06Q140.88-23.31 140.81-23.88ZM181-12.75L181-13.75L181-13.75Q181.06-14.25 181.09-15.38L181.09-15.38L181.09-15.38Q181.13-16.50 181.22-17.94L181.22-17.94L181.22-17.94Q181.31-19.38 181.41-20.94L181.41-20.94L181.41-20.94Q181.50-22.50 181.56-23.94L181.56-23.94L181.56-23.94Q181.63-25.38 181.69-26.53L181.69-26.53L181.69-26.53Q181.75-27.69 181.81-28.25L181.81-28.25L181.81-28.25Q182.13-28.75 182.41-28.91L182.41-28.91L182.41-28.91Q182.69-29.06 183.13-29.06L183.13-29.06L183.13-29.06Q183.19-29.06 183.31-29.06L183.31-29.06L183.31-29.06Q183.44-29.06 183.50-29.06L183.50-29.06L183.50-29.06Q184.13-27.25 184.16-24.63L184.16-24.63L184.16-24.63Q184.19-22 184.16-19.03L184.16-19.03L184.16-19.03Q184.13-16.06 184.22-13.13L184.22-13.13L184.22-13.13Q184.31-10.19 184.97-7.81L184.97-7.81L184.97-7.81Q185.63-5.44 187.06-3.97L187.06-3.97L187.06-3.97Q188.50-2.50 191.19-2.50L191.19-2.50L191.19-2.50Q194-2.50 196.06-3.63L196.06-3.63L196.06-3.63Q198.13-4.75 199.81-6.81L199.81-6.81L199.81-6.81Q199.81-6.75 199.88-6.41L199.88-6.41L199.88-6.41Q199.94-6.06 199.94-5.94L199.94-5.94L199.94-5.94Q199.94-4.56 198.78-3.44L198.78-3.44L198.78-3.44Q197.63-2.31 196.06-1.53L196.06-1.53L196.06-1.53Q194.50-0.75 192.78-0.34L192.78-0.34L192.78-0.34Q191.06 0.06 190 0.06L190 0.06L190 0.06Q187.19 0.06 185.44-1L185.44-1L185.44-1Q183.69-2.06 182.69-3.88L182.69-3.88L182.69-3.88Q181.69-5.69 181.34-8L181.34-8L181.34-8Q181-10.31 181-12.75L181-12.75ZM183.13-36L183.13-36L183.13-36Q182.13-36 181.72-36.59L181.72-36.59L181.72-36.59Q181.31-37.19 181.47-37.94L181.47-37.94L181.47-37.94Q181.63-38.69 182.13-39.31L182.13-39.31L182.13-39.31Q182.63-39.94 183.38-39.94L183.38-39.94L183.38-39.94Q184.44-39.94 185-39.31L185-39.31L185-39.31Q185.56-38.69 185.59-37.94L185.59-37.94L185.59-37.94Q185.63-37.19 185.03-36.59L185.03-36.59L185.03-36.59Q184.44-36 183.13-36ZM207.13-26.06L198.06-25.13L198.06-25.13Q197.69-26.81 197.78-27.56L197.78-27.56L197.78-27.56Q197.88-28.31 198.44-28.53L198.44-28.53L198.44-28.53Q199-28.75 199.91-28.66L199.91-28.66L199.91-28.66Q200.81-28.56 201.91-28.63L201.91-28.63L201.91-28.63Q203-28.69 204.28-29.13L204.28-29.13L204.28-29.13Q205.56-29.56 206.81-30.81L206.81-30.81L206.81-30.81Q206.94-31.50 207.09-33.16L207.09-33.16L207.09-33.16Q207.25-34.81 207.47-36.94L207.47-36.94L207.47-36.94Q207.69-39.06 207.91-41.41L207.91-41.41L207.91-41.41Q208.13-43.75 208.31-45.88L208.31-45.88L208.31-45.88Q208.50-48 208.66-49.63L208.66-49.63L208.66-49.63Q208.81-51.25 208.94-51.94L208.94-51.94L209.44-51.94L209.44-51.94Q209.63-51.94 209.88-52L209.88-52L209.88-52Q210.13-52.06 210.38-52.13L210.38-52.13L210.38-52.13Q210.63-52.19 210.81-52.16L210.81-52.16L210.81-52.16Q211-52.13 211.19-51.88L211.19-51.88L211.19-51.88Q211.31-49.75 211.13-47.06L211.13-47.06L211.13-47.06Q210.94-44.38 210.66-41.44L210.66-41.44L210.66-41.44Q210.38-38.50 210.19-35.56L210.19-35.56L210.19-35.56Q210-32.63 210.25-30.06L210.25-30.06L222.38-30.88L221.94-28.44L211.25-27L211.25-27Q209.81-24.38 209.31-21.41L209.31-21.41L209.31-21.41Q208.81-18.44 209-15.66L209-15.66L209-15.66Q209.19-12.88 209.91-10.44L209.91-10.44L209.91-10.44Q210.63-8 211.66-6.31L211.66-6.31L211.66-6.31Q212.69-4.63 213.88-3.91L213.88-3.91L213.88-3.91Q215.06-3.19 216.19-3.81L216.19-3.81L216.19-3.81Q217.38-3.75 218.28-4.16L218.28-4.16L218.28-4.16Q219.19-4.56 219.81-5.25L219.81-5.25L219.81-5.25Q220.44-5.94 220.88-6.78L220.88-6.78L220.88-6.78Q221.31-7.63 221.66-8.44L221.66-8.44L221.66-8.44Q222-9.25 222.41-9.88L222.41-9.88L222.41-9.88Q222.81-10.50 223.31-10.81L223.31-10.81L223.31-10.81Q223.31-10.69 223.34-10.09L223.34-10.09L223.34-10.09Q223.38-9.50 223.38-9.31L223.38-9.31L223.38-9.31Q223.38-7.50 222.75-5.91L222.75-5.91L222.75-5.91Q222.13-4.31 221.09-3.19L221.09-3.19L221.09-3.19Q220.06-2.06 218.59-1.44L218.59-1.44L218.59-1.44Q217.13-0.81 215.44-0.81L215.44-0.81L215.44-0.81Q212.69-0.94 211-2.28L211-2.28L211-2.28Q209.31-3.63 208.31-5.81L208.31-5.81L208.31-5.81Q207.31-8 206.97-10.66L206.97-10.66L206.97-10.66Q206.63-13.31 206.63-16.06L206.63-16.06L206.63-16.06Q206.63-18.81 206.78-21.41L206.78-21.41L206.78-21.41Q206.94-24 207.13-26.06L207.13-26.06ZM223-9.75L223-9.75L223-9.75Q223-11.50 223.38-13.72L223.38-13.72L223.38-13.72Q223.75-15.94 224.50-18.22L224.50-18.22L224.50-18.22Q225.25-20.50 226.31-22.69L226.31-22.69L226.31-22.69Q227.38-24.88 228.75-26.56L228.75-26.56L228.75-26.56Q230.13-28.25 231.81-29.28L231.81-29.28L231.81-29.28Q233.50-30.31 235.56-30.31L235.56-30.31L237.13-30.31L237.13-30.31Q238.25-30.31 239.31-30.09L239.31-30.09L239.31-30.09Q240.38-29.88 241.16-29.31L241.16-29.31L241.16-29.31Q241.94-28.75 241.94-27.69L241.94-27.69L233.19-27.69L233.19-27.69Q232.31-27.69 231.50-26.63L231.50-26.63L231.50-26.63Q230.69-25.56 229.97-23.97L229.97-23.97L229.97-23.97Q229.25-22.38 228.59-20.44L228.59-20.44L228.59-20.44Q227.94-18.50 227.50-16.69L227.50-16.69L227.50-16.69Q227.06-14.88 226.78-13.47L226.78-13.47L226.78-13.47Q226.50-12.06 226.50-11.50L226.50-11.50L226.50-11.50Q226.50-9.63 226.97-7.97L226.97-7.97L226.97-7.97Q227.44-6.31 228.38-5.09L228.38-5.09L228.38-5.09Q229.31-3.88 230.75-3.19L230.75-3.19L230.75-3.19Q232.19-2.50 234.13-2.50L234.13-2.50L234.13-2.50Q236.38-2.50 238.41-3.06L238.41-3.06L238.41-3.06Q240.44-3.63 242.19-4.44L242.19-4.44L242.19-4.44Q243.94-5.25 245.47-6.19L245.47-6.19L245.47-6.19Q247-7.13 248.28-7.94L248.28-7.94L248.28-7.94Q249.56-8.75 250.56-9.28L250.56-9.28L250.56-9.28Q251.56-9.81 252.44-9.81L252.44-9.81L252.44-9.81Q252.44-7.88 251.31-6.34L251.31-6.34L251.31-6.34Q250.19-4.81 248.50-3.72L248.50-3.72L248.50-3.72Q246.81-2.63 244.63-1.91L244.63-1.91L244.63-1.91Q242.44-1.19 240.19-0.75L240.19-0.75L240.19-0.75Q237.94-0.31 235.91-0.13L235.91-0.13L235.91-0.13Q233.88 0.06 232.44 0.06L232.44 0.06L232.44 0.06Q230.31 0.06 228.53-0.66L228.53-0.66L228.53-0.66Q226.75-1.38 225.53-2.72L225.53-2.72L225.53-2.72Q224.31-4.06 223.66-5.84L223.66-5.84L223.66-5.84Q223-7.63 223-9.75ZM277.06-8.56L277.06-8.56L277.06-8.56Q276.94-9.06 276.78-10.13L276.78-10.13L276.78-10.13Q276.63-11.19 276.38-12.53L276.38-12.53L276.38-12.53Q276.13-13.88 275.84-15.38L275.84-15.38L275.84-15.38Q275.56-16.88 275.28-18.22L275.28-18.22L275.28-18.22Q275-19.56 274.78-20.63L274.78-20.63L274.78-20.63Q274.56-21.69 274.44-22.19L274.44-22.19L274.44-22.19Q274.25-23.31 273.97-24.22L273.97-24.22L273.97-24.22Q273.69-25.13 273.16-25.84L273.16-25.84L273.16-25.84Q272.63-26.56 271.84-26.97L271.84-26.97L271.84-26.97Q271.06-27.38 269.81-27.38L269.81-27.38L269.81-27.38Q268.88-27.38 267.84-26.69L267.84-26.69L267.84-26.69Q266.81-26 265.88-25.09L265.88-25.09L265.88-25.09Q264.94-24.19 264.25-23.34L264.25-23.34L264.25-23.34Q263.56-22.50 263.31-22.19L263.31-22.19L263.31-22.19Q261.75-20.50 260.94-17.88L260.94-17.88L260.94-17.88Q260.13-15.25 259.72-12.38L259.72-12.38L259.72-12.38Q259.31-9.50 259.25-6.72L259.25-6.72L259.25-6.72Q259.19-3.94 259.06-1.75L259.06-1.75L256.50-0.81L256.50-40.19L256.50-40.19Q256.50-40.50 256.59-41.34L256.59-41.34L256.59-41.34Q256.69-42.19 256.84-43.16L256.84-43.16L256.84-43.16Q257-44.13 257.16-44.97L257.16-44.97L257.16-44.97Q257.31-45.81 257.38-46.19L257.38-46.19L257.38-46.19Q257.44-46.38 257.75-46.66L257.75-46.66L257.75-46.66Q258.06-46.94 258.19-47L258.19-47L259.06-46.19L260.81-24.81L261.63-24.81L261.63-24.81Q262.44-25.56 263.50-26.44L263.50-26.44L263.50-26.44Q264.56-27.31 265.81-28.13L265.81-28.13L265.81-28.13Q267.06-28.94 268.41-29.44L268.41-29.44L268.41-29.44Q269.75-29.94 271.06-29.94L271.06-29.94L271.06-29.94Q273.38-29.94 274.75-28.81L274.75-28.81L274.75-28.81Q276.13-27.69 276.97-25.78L276.97-25.78L276.97-25.78Q277.81-23.88 278.22-21.50L278.22-21.50L278.22-21.50Q278.63-19.13 279.06-16.63L279.06-16.63L279.06-16.63Q279.50-14.13 280.03-11.72L280.03-11.72L280.03-11.72Q280.56-9.31 281.59-7.47L281.59-7.47L281.59-7.47Q282.63-5.63 284.34-4.47L284.34-4.47L284.34-4.47Q286.06-3.31 288.75-3.31L288.75-3.31L288.75-3.31Q290.13-3.31 291.13-3.38L291.13-3.38L291.13-3.38Q292.13-3.44 293.13-3.69L293.13-3.69L293.13-3.69Q294.13-3.94 295.16-4.47L295.16-4.47L295.16-4.47Q296.19-5 297.50-5.94L297.50-5.94L297.56-5.81L297.56-5.81Q297.56-5.63 297.56-5.56L297.56-5.56L297.56-5.56Q297.56-4.56 296.41-3.53L296.41-3.53L296.41-3.53Q295.25-2.50 293.66-1.69L293.66-1.69L293.66-1.69Q292.06-0.88 290.41-0.38L290.41-0.38L290.41-0.38Q288.75 0.13 287.69 0.13L287.69 0.13L287.69 0.13Q285.63 0.13 284.06-0.63L284.06-0.63L284.06-0.63Q282.50-1.38 281.25-2.63L281.25-2.63L281.25-2.63Q280-3.88 278.97-5.44L278.97-5.44L278.97-5.44Q277.94-7 277.06-8.56Z" fill="#ae837b"></path></g></g><style>text {
  font-size: 64px;
  font-family: Arial Black;
  dominant-baseline: central;
  text-anchor: middle;
}</style></svg>